name C:\Users\r0593348\3dpredictsim\Results\Batchsim_tmt_linear_v2\Pog_s1_tmt_aCst_d00_k500_ig24_pas.mot
datacolumns 128
datarows 4
range 0.55008317 0.58308816
endheader
time	pelvis_tilt	pelvis_list	pelvis_rotation	pelvis_tx	pelvis_ty	pelvis_tz	hip_flexion_l	hip_adduction_l	hip_rotation_l	hip_flexion_r	hip_adduction_r	hip_rotation_r	knee_angle_l	knee_angle_r	ankle_angle_l	ankle_angle_r	subtalar_angle_l	subtalar_angle_r	tmt_angle_l	tmt_angle_r	mtp_angle_l	mtp_angle_r	lumbar_extension	lumbar_bending	lumbar_rotation	arm_flex_l	arm_add_l	arm_rot_l	arm_flex_r	arm_add_r	arm_rot_r	elbow_flex_l	elbow_flex_r	pro_sup_l	pro_sup_r	glut_med1_l/activation	glut_med2_l/activation	glut_med3_l/activation	glut_min1_l/activation	glut_min2_l/activation	glut_min3_l/activation	semimem_l/activation	semiten_l/activation	bifemlh_l/activation	bifemsh_l/activation	sar_l/activation	add_long_l/activation	add_brev_l/activation	add_mag1_l/activation	add_mag2_l/activation	add_mag3_l/activation	tfl_l/activation	pect_l/activation	grac_l/activation	glut_max1_l/activation	glut_max2_l/activation	glut_max3_l/activation	iliacus_l/activation	psoas_l/activation	quad_fem_l/activation	gem_l/activation	peri_l/activation	rect_fem_l/activation	vas_med_l/activation	vas_int_l/activation	vas_lat_l/activation	med_gas_l/activation	lat_gas_l/activation	soleus_l/activation	tib_post_l/activation	flex_dig_l/activation	flex_hal_l/activation	tib_ant_l/activation	per_brev_l/activation	per_long_l/activation	per_tert_l/activation	ext_dig_l/activation	ext_hal_l/activation	ercspn_l/activation	intobl_l/activation	extobl_l/activation	glut_med1_r/activation	glut_med2_r/activation	glut_med3_r/activation	glut_min1_r/activation	glut_min2_r/activation	glut_min3_r/activation	semimem_r/activation	semiten_r/activation	bifemlh_r/activation	bifemsh_r/activation	sar_r/activation	add_long_r/activation	add_brev_r/activation	add_mag1_r/activation	add_mag2_r/activation	add_mag3_r/activation	tfl_r/activation	pect_r/activation	grac_r/activation	glut_max1_r/activation	glut_max2_r/activation	glut_max3_r/activation	iliacus_r/activation	psoas_r/activation	quad_fem_r/activation	gem_r/activation	peri_r/activation	rect_fem_r/activation	vas_med_r/activation	vas_int_r/activation	vas_lat_r/activation	med_gas_r/activation	lat_gas_r/activation	soleus_r/activation	tib_post_r/activation	flex_dig_r/activation	flex_hal_r/activation	tib_ant_r/activation	per_brev_r/activation	per_long_r/activation	per_tert_r/activation	ext_dig_r/activation	ext_hal_r/activation	ercspn_r/activation	intobl_r/activation	extobl_r/activation	
          0.55008317	         -2.90230388	         -0.98622660	         -5.28838626	          0.68760396	          0.86968323	          0.00335957	         27.07189993	         -0.29092451	         -2.23264433	        -17.52938191	          1.32151600	          7.34115300	         -8.23486992	         -8.20894522	          5.91682328	         -9.93630632	          3.15136317	          9.66174428	          0.07020730	          2.02129690	         -0.07925211	         27.78182288	          0.25804723	          2.80815091	          1.65912208	        -11.79336190	        -13.45367528	          6.37653457	          1.97730388	        -13.49797019	          9.59674773	         21.67548124	         33.65965514	         86.51662706	         86.51662706	          0.08964186	          0.05010734	          0.11804818	          0.05000249	          0.05000291	          0.05007754	          0.05916852	          0.05916830	          0.09316523	          0.05304302	          0.05006781	          0.06249393	          0.10686936	          0.10964735	          0.19126683	          0.15895366	          0.05000082	          0.05029877	          0.05916883	          0.07000439	          0.14302919	          0.16281165	          0.05000059	          0.05000037	          0.11676714	          0.05000272	          0.05000427	          0.05000016	          0.07318701	          0.12378360	          0.05013227	          0.05916802	          0.05916799	          0.05916804	          0.05229349	          0.05916823	          0.05916816	          0.51358247	          0.31072016	          0.18458854	          0.30354906	          0.51306693	          0.28378840	          0.05000009	          0.11816351	          0.11455715	          0.25648267	          0.08286580	          0.05000024	          0.23392513	          0.15207841	          0.08285978	          0.05000180	          0.05000025	          0.05000022	          0.05000035	          0.07227760	          0.14767153	          0.05582736	          0.05000482	          0.05000345	          0.05000064	          0.22223481	          0.11781727	          0.05000533	          0.05000158	          0.05000096	          0.05000101	          0.29192874	          0.56825545	          0.05000048	          0.05000081	          0.05000033	          0.22906232	          0.12362878	          0.13729842	          0.10836765	          0.17126309	          0.24874845	          0.21232369	          0.19084577	          0.20893054	          0.25244559	          0.05000001	          0.09587922	          0.16672517	          0.05000014	          0.05000003	          0.05000011	          0.05000008	          0.05000012	          0.05117262	
          0.56108483	         -2.87683510	         -1.00279090	         -5.40049078	          0.70526366	          0.86833357	          0.00317327	         26.53972368	         -0.04288334	         -2.01573918	        -17.14578320	          1.17586439	          7.08307179	         -8.46991784	        -10.71493567	          5.21102365	        -10.68953253	          2.67779840	         10.89547860	          0.07649993	          1.74460775	         -0.07049095	         28.28780262	          0.50821203	          2.57295951	          1.72248937	        -13.00360230	        -13.45441404	          6.15949927	          1.58646021	        -13.53883224	          9.83854203	         21.67512447	         34.62108236	         86.51662706	         86.51662706	          0.07575201	          0.05000060	          0.10853809	          0.05000033	          0.05000037	          0.05000039	          0.05000041	          0.05000029	          0.07872937	          0.05000007	          0.05000021	          0.08285576	          0.11870818	          0.27213930	          0.26185782	          0.16010922	          0.05000080	          0.05008832	          0.05000227	          0.05916835	          0.16768245	          0.19431418	          0.05000012	          0.05000025	          0.30374581	          0.07005720	          0.08647887	          0.07002339	          0.31704582	          0.34286113	          0.26093461	          0.05000000	          0.05000002	          0.05000000	          0.05000008	          0.05000077	          0.05000042	          0.63487073	          0.29461084	          0.17229821	          0.58288436	          0.58299112	          0.35172516	          0.05000001	          0.09985415	          0.09680660	          0.21674089	          0.07002584	          0.05001786	          0.19767868	          0.12851403	          0.07002080	          0.05940260	          0.05000018	          0.05000023	          0.05000011	          0.06107838	          0.20948970	          0.26880492	          0.21303629	          0.05694023	          0.10755390	          0.18779976	          0.09956258	          0.05000047	          0.05006823	          0.05014017	          0.06737295	          0.24669460	          0.48020530	          0.06574167	          0.05928931	          0.05916808	          0.19356927	          0.11602562	          0.11602605	          0.11601188	          0.14472599	          0.21020506	          0.17942427	          0.16127439	          0.17655711	          0.21332943	          0.05000014	          0.08102289	          0.14089132	          0.05000017	          0.06540852	          0.05000071	          0.05945688	          0.08239874	          0.07001737	
          0.57208650	         -2.84542839	         -0.99665690	         -5.48733869	          0.72306011	          0.86672535	          0.00300297	         25.88184554	          0.15970603	         -1.74800210	        -16.65450240	          1.02869223	          6.81176324	         -9.17655894	        -13.42119862	          4.48635030	        -11.28163876	          2.18431753	         12.06303317	         -0.07837322	          1.36168915	         -0.13956068	         28.13143823	          0.76408825	          2.30440014	          1.77357597	        -14.17640863	        -13.47445601	          6.05509657	          1.15080308	        -13.58327942	         10.03718556	         21.60335329	         35.57414769	         86.51662706	         86.51662706	          0.28992920	          0.25731443	          0.29368994	          0.05021433	          0.05000346	          0.22006842	          0.07912498	          0.09816806	          0.09238027	          0.05000090	          0.05002838	          0.07001749	          0.10031453	          0.22997163	          0.22128386	          0.17877130	          0.05000048	          0.06475651	          0.08281882	          0.05000064	          0.17828068	          0.16852396	          0.05674309	          0.05000149	          0.25668064	          0.05920208	          0.13656135	          0.05917332	          0.26791982	          0.28973507	          0.22050300	          0.05916800	          0.05916799	          0.05916733	          0.05000010	          0.05916800	          0.05916798	          0.53649797	          0.34597247	          0.17448494	          0.49256697	          0.61015784	          0.29722574	          0.05000004	          0.08438183	          0.08180648	          0.18315998	          0.05917542	          0.05000026	          0.16704863	          0.10860095	          0.05917122	          0.08488841	          0.05000129	          0.05000565	          0.05000012	          0.05161455	          0.18224716	          0.41117744	          0.18002725	          0.05925314	          0.09088909	          0.15870045	          0.08443047	          0.05916985	          0.05001215	          0.05012714	          0.05916784	          0.20846946	          0.42613624	          0.05916809	          0.05010317	          0.05000029	          0.16357584	          0.09804756	          0.09804792	          0.09803595	          0.12230080	          0.17763394	          0.15162260	          0.13628507	          0.14919988	          0.18027427	          0.08526368	          0.12647148	          0.12901077	          0.05127288	          0.18667147	          0.10935996	          0.07171431	          0.06963112	          0.05916827	
          0.58308816	         -2.81135903	         -0.97755837	         -5.54861482	          0.74076244	          0.86489281	          0.00282558	         25.09577566	          0.34500347	         -1.45358276	        -16.05622717	          0.88707646	          6.53605375	         -9.87939638	        -16.28582774	          3.97066880	        -11.60932028	          1.65264253	         13.12756329	         -0.00818341	          0.92700428	         -0.16889359	         26.95185326	          1.00558479	          2.01868404	          1.81447172	        -15.26227492	        -13.50921984	          6.07764358	          0.71390654	        -13.63517867	         10.21589524	         21.43182738	         36.49100846	         86.51662706	         86.51662706	          0.35589382	          0.40927728	          0.48349968	          0.21344086	          0.24838900	          0.38261198	          0.06686468	          0.08295720	          0.07806608	          0.07000312	          0.05000062	          0.05916839	          0.08477091	          0.19433782	          0.18699729	          0.18499908	          0.05000044	          0.05472340	          0.07001725	          0.26085922	          0.23576753	          0.19892410	          0.05000015	          0.05000014	          0.21690823	          0.05002958	          0.28832039	          0.05000448	          0.22640611	          0.24486474	          0.18633643	          0.05000004	          0.05000009	          0.05000001	          0.05000001	          0.05000017	          0.05000013	          0.70703839	          0.29236431	          0.14744865	          0.70726626	          0.64336441	          0.47649146	          0.06311686	          0.07130694	          0.06913063	          0.15477966	          0.05000630	          0.05000009	          0.18725595	          0.09177346	          0.05000287	          0.11373471	          0.05000038	          0.05000034	          0.05000111	          0.05917521	          0.15506188	          0.34746585	          0.15213231	          0.05007230	          0.07680608	          0.13411012	          0.07134842	          0.05000255	          0.05000133	          0.05000064	          0.05000055	          0.17616731	          0.37732022	          0.05000017	          0.05000048	          0.05000028	          0.13822988	          0.08285519	          0.08285549	          0.08284537	          0.10335038	          0.15010970	          0.12812878	          0.11516784	          0.12608167	          0.15234100	          0.10861753	          0.11481682	          0.10902077	          0.10737108	          0.25518152	          0.18727860	          0.10535888	          0.05884183	          0.05000021	
